Sumana-Bold.ufo
<glyph name="a-deva" format="1">
  <advance width="756"/>
  <unicode hex="0905"/>
  <outline>
    <contour>
      <point x="776" y="502" type="line"/>
      <point x="754" y="580" type="line"/>
      <point x="455" y="580" type="line"/>
      <point x="478" y="502" type="line"/>
    </contour>
    <contour>
      <point x="142" y="456" type="line"/>
      <point x="182" y="498"/>
      <point x="240" y="520"/>
      <point x="288" y="520" type="curve" smooth="yes"/>
      <point x="334" y="520"/>
      <point x="371" y="499"/>
      <point x="371" y="457" type="curve" smooth="yes"/>
      <point x="371" y="398"/>
      <point x="329" y="375"/>
      <point x="156" y="352" type="curve"/>
      <point x="182" y="256" type="line"/>
      <point x="339" y="270"/>
      <point x="426" y="329"/>
      <point x="426" y="440" type="curve" smooth="yes"/>
      <point x="426" y="547"/>
      <point x="349" y="599"/>
      <point x="258" y="599" type="curve" smooth="yes"/>
      <point x="203" y="599"/>
      <point x="143" y="580"/>
      <point x="92" y="542" type="curve"/>
    </contour>
    <contour>
      <point x="66" y="57"/>
      <point x="177" y="-8"/>
      <point x="289" y="-8" type="curve" smooth="yes"/>
      <point x="394" y="-8"/>
      <point x="457" y="68"/>
      <point x="457" y="146" type="curve" smooth="yes"/>
      <point x="457" y="246"/>
      <point x="352" y="368"/>
      <point x="193" y="348" type="curve"/>
      <point x="210" y="294" type="line"/>
      <point x="295" y="298"/>
      <point x="341" y="222"/>
      <point x="341" y="156" type="curve" smooth="yes"/>
      <point x="341" y="105"/>
      <point x="315" y="61"/>
      <point x="259" y="61" type="curve" smooth="yes"/>
      <point x="180" y="61"/>
      <point x="100" y="127"/>
      <point x="62" y="230" type="curve"/>
      <point x="8" y="199" type="line"/>
    </contour>
    <contour>
      <point x="556" y="297"/>
      <point x="429" y="284"/>
      <point x="342" y="321" type="curve"/>
      <point x="366" y="261" type="line"/>
      <point x="437" y="222"/>
      <point x="542" y="214"/>
      <point x="588" y="263" type="curve"/>
      <point x="555" y="359" type="line"/>
    </contour>
    <component base="stem-deva" xOffset="168"/>
    <contour>
      <point x="622" y="580" type="move" name="top"/>
    </contour>
    <contour>
      <point x="396" y="0" type="move" name="bottom"/>
    </contour>
  </outline>
</glyph>
<glyph name="lVocalic-deva" format="1">
  <advance width="713"/>
  <unicode hex="090C"/>
  <note>
    dVocalicL
  </note>
  <outline>
    <contour>
      <point x="732" y="502" type="line"/>
      <point x="710" y="580" type="line"/>
      <point x="-20" y="580" type="line"/>
      <point x="3" y="502" type="line"/>
    </contour>
    <contour>
      <point x="658" y="71" type="line"/>
      <point x="602" y="-20"/>
      <point x="557" y="-39"/>
      <point x="539" y="-22" type="curve" smooth="yes"/>
      <point x="521" y="-5"/>
      <point x="537" y="39"/>
      <point x="573" y="92" type="curve" smooth="yes"/>
      <point x="666" y="228"/>
      <point x="612" y="428"/>
      <point x="415" y="428" type="curve" smooth="yes"/>
      <point x="314" y="428"/>
      <point x="243" y="335"/>
      <point x="233" y="212" type="curve"/>
      <point x="337" y="198" type="line"/>
      <point x="350" y="299"/>
      <point x="402" y="340"/>
      <point x="456" y="340" type="curve" smooth="yes"/>
      <point x="546" y="340"/>
      <point x="537" y="230"/>
      <point x="485" y="141" type="curve" smooth="yes"/>
      <point x="437" y="63"/>
      <point x="434" y="-8"/>
      <point x="495" y="-55" type="curve" smooth="yes"/>
      <point x="547" y="-95"/>
      <point x="633" y="-106"/>
      <point x="733" y="-2" type="curve"/>
    </contour>
    <contour>
      <point x="306" y="381"/>
      <point x="253" y="433"/>
      <point x="166" y="433" type="curve" smooth="yes"/>
      <point x="55" y="433"/>
      <point x="16" y="356"/>
      <point x="16" y="273" type="curve" smooth="yes"/>
      <point x="16" y="137"/>
      <point x="125" y="32"/>
      <point x="279" y="-27" type="curve"/>
      <point x="310" y="22" type="line"/>
      <point x="184" y="79"/>
      <point x="131" y="148"/>
      <point x="131" y="231" type="curve" smooth="yes"/>
      <point x="131" y="305"/>
      <point x="165" y="335"/>
      <point x="211" y="335" type="curve" smooth="yes"/>
      <point x="244" y="335"/>
      <point x="287" y="317"/>
      <point x="319" y="286" type="curve"/>
      <point x="355" y="320" type="line"/>
    </contour>
    <component base="stem-tiny-deva" xOffset="56" yOffset="19"/>
    <contour>
      <point x="467" y="580" type="move" name="top"/>
    </contour>
  </outline>
</glyph>
<glyph name="ka-deva" format="1">
  <advance width="811"/>
  <unicode hex="0915"/>
  <note>
    dKa
  </note>
  <outline>
    <contour>
      <point x="-20" y="580" type="line"/>
      <point x="3" y="502" type="line"/>
      <point x="831" y="502" type="line"/>
      <point x="809" y="580" type="line"/>
    </contour>
    <contour>
      <point x="423" y="294" type="line"/>
      <point x="363" y="222"/>
      <point x="306" y="163"/>
      <point x="225" y="163" type="curve" smooth="yes"/>
      <point x="160" y="163"/>
      <point x="129" y="205"/>
      <point x="129" y="251" type="curve" smooth="yes"/>
      <point x="129" y="313"/>
      <point x="170" y="359"/>
      <point x="250" y="359" type="curve" smooth="yes"/>
      <point x="285" y="359"/>
      <point x="325" y="350"/>
      <point x="364" y="331" type="curve"/>
      <point x="367" y="399" type="line"/>
      <point x="325" y="427"/>
      <point x="282" y="455"/>
      <point x="216" y="454" type="curve" smooth="yes"/>
      <point x="111" y="453"/>
      <point x="48" y="382"/>
      <point x="48" y="280" type="curve" smooth="yes"/>
      <point x="48" y="161"/>
      <point x="127" y="71"/>
      <point x="233" y="71" type="curve" smooth="yes"/>
      <point x="296" y="71"/>
      <point x="380" y="116"/>
      <point x="453" y="217" type="curve"/>
    </contour>
    <contour>
      <point x="724" y="435"/>
      <point x="641" y="435" type="curve" smooth="yes"/>
      <point x="583" y="435"/>
      <point x="511" y="399"/>
      <point x="444" y="327" type="curve"/>
      <point x="467" y="228" type="line"/>
      <point x="525" y="296"/>
      <point x="608" y="344"/>
      <point x="662" y="344" type="curve" smooth="yes"/>
      <point x="693" y="344"/>
      <point x="714" y="328"/>
      <point x="714" y="290" type="curve" smooth="yes"/>
      <point x="714" y="242"/>
      <point x="675" y="169"/>
      <point x="591" y="136" type="curve"/>
      <point x="654" y="39" type="line"/>
      <point x="744" y="87"/>
      <point x="784" y="171"/>
      <point x="784" y="251" type="curve" smooth="yes"/>
      <point x="784" y="373"/>
    </contour>
    <component base="stem-deva" xOffset="-39"/>
    <contour>
      <point x="93" y="-20" type="move" name="nukta"/>
    </contour>
    <contour>
      <point x="409" y="0" type="move" name="bottom"/>
    </contour>
    <contour>
      <point x="409" y="580" type="move" name="top"/>
    </contour>
  </outline>
</glyph>
<glyph name="ga-deva" format="1">
  <advance width="581"/>
  <unicode hex="0917"/>
  <note>
    dGa
  </note>
  <outline>
    <contour>
      <point x="601" y="502" type="line"/>
      <point x="579" y="580" type="line"/>
      <point x="-20" y="580" type="line"/>
      <point x="3" y="502" type="line"/>
    </contour>
    <contour>
      <point x="67" y="540" type="line"/>
      <point x="147" y="448"/>
      <point x="158" y="302"/>
      <point x="119" y="231" type="curve"/>
      <point x="55" y="235"/>
      <point x="16" y="212"/>
      <point x="16" y="174" type="curve" smooth="yes"/>
      <point x="16" y="120"/>
      <point x="68" y="66"/>
      <point x="128" y="66" type="curve" smooth="yes"/>
      <point x="249" y="66"/>
      <point x="319" y="341"/>
      <point x="184" y="540" type="curve"/>
    </contour>
    <component base="stem-deva" xOffset="-40"/>
    <contour>
      <point x="139" y="0" type="move" name="nukta"/>
    </contour>
    <contour>
      <point x="416" y="0" type="move" name="bottom"/>
    </contour>
    <contour>
      <point x="416" y="580" type="move" name="top"/>
    </contour>
  </outline>
</glyph>
<glyph name="ca-deva" format="1">
  <advance width="633"/>
  <unicode hex="091A"/>
  <note>
    dCa
  </note>
  <outline>
    <contour>
      <point x="-20" y="580" type="line"/>
      <point x="3" y="502" type="line"/>
      <point x="653" y="502" type="line"/>
      <point x="631" y="580" type="line"/>
    </contour>
    <contour>
      <point x="179" y="384"/>
      <point x="85" y="327"/>
      <point x="85" y="235" type="curve" smooth="yes"/>
      <point x="85" y="120"/>
      <point x="198" y="49"/>
      <point x="292" y="49" type="curve" smooth="yes"/>
      <point x="373" y="49"/>
      <point x="460" y="79"/>
      <point x="505" y="157" type="curve"/>
      <point x="450" y="286" type="line"/>
      <point x="429" y="182"/>
      <point x="337" y="118"/>
      <point x="253" y="118" type="curve" smooth="yes"/>
      <point x="203" y="118"/>
      <point x="179" y="146"/>
      <point x="179" y="191" type="curve" smooth="yes"/>
      <point x="179" y="260"/>
      <point x="244" y="320"/>
      <point x="374" y="339" type="curve"/>
      <point x="302" y="391" type="line"/>
    </contour>
    <contour>
      <point x="46" y="417" type="line"/>
      <point x="68" y="340" type="line"/>
      <point x="301" y="348" type="line"/>
      <point x="374" y="339" type="line"/>
      <point x="353" y="417" type="line"/>
    </contour>
    <component base="stem-deva" xOffset="25"/>
    <contour>
      <point x="130" y="-24" type="move" name="nukta"/>
    </contour>
    <contour>
      <point x="485" y="0" type="move" name="bottom"/>
    </contour>
    <contour>
      <point x="485" y="580" type="move" name="top"/>
    </contour>
  </outline>
</glyph>
<glyph name="cha-deva" format="1">
  <advance width="750"/>
  <unicode hex="091B"/>
  <note>
    dCha
  </note>
  <outline>
    <contour>
      <point x="-20" y="580" type="line"/>
      <point x="3" y="502" type="line"/>
      <point x="770" y="502" type="line"/>
      <point x="748" y="580" type="line"/>
    </contour>
    <contour>
      <point x="481" y="430"/>
      <point x="415" y="387"/>
      <point x="415" y="314" type="curve" smooth="yes"/>
      <point x="415" y="204"/>
      <point x="543" y="140"/>
      <point x="650" y="115" type="curve"/>
      <point x="678" y="171" type="line"/>
      <point x="566" y="193"/>
      <point x="524" y="258"/>
      <point x="524" y="306" type="curve" smooth="yes"/>
      <point x="524" y="338"/>
      <point x="542" y="368"/>
      <point x="572" y="368" type="curve" smooth="yes"/>
      <point x="610" y="368"/>
      <point x="646" y="332"/>
      <point x="646" y="260" type="curve" smooth="yes"/>
      <point x="646" y="121"/>
      <point x="454" y="18"/>
      <point x="324" y="18" type="curve" smooth="yes"/>
      <point x="240" y="18"/>
      <point x="202" y="63"/>
      <point x="202" y="109" type="curve" smooth="yes"/>
      <point x="202" y="165"/>
      <point x="257" y="219"/>
      <point x="353" y="187" type="curve"/>
      <point x="339" y="278" type="line"/>
      <point x="184" y="315"/>
      <point x="105" y="237"/>
      <point x="105" y="149" type="curve" smooth="yes"/>
      <point x="105" y="59"/>
      <point x="188" y="-42"/>
      <point x="358" y="-42" type="curve"/>
      <point x="549" y="-42"/>
      <point x="753" y="78"/>
      <point x="753" y="244" type="curve" smooth="yes"/>
      <point x="753" y="355"/>
      <point x="665" y="430"/>
      <point x="555" y="430" type="curve" smooth="yes"/>
    </contour>
    <contour>
      <point x="97" y="467"/>
      <point x="34" y="409"/>
      <point x="34" y="337" type="curve" smooth="yes"/>
      <point x="34" y="262"/>
      <point x="89" y="205"/>
      <point x="206" y="182" type="curve"/>
      <point x="247" y="236" type="line"/>
      <point x="171" y="249"/>
      <point x="130" y="274"/>
      <point x="130" y="317" type="curve" smooth="yes"/>
      <point x="130" y="364"/>
      <point x="179" y="381"/>
      <point x="233" y="381" type="curve" smooth="yes"/>
      <point x="274" y="381"/>
      <point x="318" y="371"/>
      <point x="346" y="355" type="curve"/>
      <point x="336" y="446" type="line"/>
      <point x="298" y="460"/>
      <point x="258" y="467"/>
      <point x="214" y="467" type="curve" smooth="yes"/>
    </contour>
    <component base="stem-tiny-deva" xOffset="157"/>
    <contour>
      <point x="97" y="-39" type="move" name="nukta"/>
    </contour>
    <contour>
      <point x="368" y="-24" type="move" name="bottom"/>
    </contour>
    <contour>
      <point x="542" y="580" type="move" name="top"/>
    </contour>
  </outline>
</glyph>
<glyph name="ja-deva" format="1">
  <advance width="704"/>
  <unicode hex="091C"/>
  <note>
    dJa
  </note>
  <outline>
    <contour>
      <point x="319" y="250" type="line"/>
      <point x="263" y="310" type="line"/>
      <point x="389" y="283"/>
      <point x="440" y="223"/>
      <point x="440" y="151" type="curve" smooth="yes"/>
      <point x="440" y="78"/>
      <point x="387" y="4"/>
      <point x="283" y="4" type="curve" smooth="yes"/>
      <point x="186" y="4"/>
      <point x="80" y="72"/>
      <point x="7" y="208" type="curve"/>
      <point x="60" y="241" type="line"/>
      <point x="119" y="159"/>
      <point x="179" y="115"/>
      <point x="257" y="115" type="curve" smooth="yes"/>
      <point x="310" y="115"/>
      <point x="334" y="144"/>
      <point x="334" y="181" type="curve" smooth="yes"/>
      <point x="334" y="237"/>
      <point x="278" y="252"/>
      <point x="190" y="268" type="curve"/>
      <point x="167" y="326" type="line"/>
      <point x="517" y="326" type="line"/>
      <point x="517" y="270" type="line"/>
    </contour>
    <contour>
      <point x="-20" y="580" type="line"/>
      <point x="702" y="580" type="line"/>
      <point x="724" y="502" type="line"/>
      <point x="3" y="502" type="line"/>
    </contour>
    <component base="stem-deva" xOffset="110"/>
    <contour>
      <point x="389" y="-54" type="move" name="nukta"/>
    </contour>
    <contour>
      <point x="561" y="0" type="move" name="bottom"/>
    </contour>
    <contour>
      <point x="561" y="580" type="move" name="top"/>
    </contour>
  </outline>
</glyph>
<glyph name="jha-deva" format="1">
  <advance width="782"/>
  <unicode hex="091D"/>
  <note>
    dJha
  </note>
  <outline>
    <contour>
      <point x="225" y="434" type="line" smooth="yes"/>
      <point x="141" y="437"/>
      <point x="77" y="399"/>
      <point x="77" y="313" type="curve" smooth="yes"/>
      <point x="77" y="224"/>
      <point x="146" y="162"/>
      <point x="218" y="162" type="curve" smooth="yes"/>
      <point x="288" y="162"/>
      <point x="302" y="194"/>
      <point x="361" y="193" type="curve" smooth="yes"/>
      <point x="390" y="192"/>
      <point x="404" y="177"/>
      <point x="404" y="136" type="curve" smooth="yes"/>
      <point x="404" y="58"/>
      <point x="341" y="41"/>
      <point x="266" y="42" type="curve" smooth="yes"/>
      <point x="217" y="42"/>
      <point x="163" y="56"/>
      <point x="117" y="83" type="curve"/>
      <point x="72" y="67" type="line"/>
      <point x="117" y="3"/>
      <point x="190" y="-55"/>
      <point x="300" y="-55" type="curve" smooth="yes"/>
      <point x="439" y="-55"/>
      <point x="479" y="39"/>
      <point x="478" y="121" type="curve" smooth="yes"/>
      <point x="477" y="216"/>
      <point x="419" y="296"/>
      <point x="348" y="296" type="curve" smooth="yes"/>
      <point x="274" y="296"/>
      <point x="231" y="238"/>
      <point x="185" y="246" type="curve" smooth="yes"/>
      <point x="126" y="256"/>
      <point x="146" y="355"/>
      <point x="227" y="354" type="curve" smooth="yes"/>
      <point x="440" y="352" type="line"/>
      <point x="354" y="430" type="line"/>
    </contour>
    <contour>
      <point x="87" y="129"/>
      <point x="59" y="104"/>
      <point x="59" y="58" type="curve" smooth="yes"/>
      <point x="59" y="-17"/>
      <point x="95" y="-106"/>
      <point x="159" y="-203" type="curve"/>
      <point x="252" y="-149" type="line"/>
      <point x="203" y="-108"/>
      <point x="164" y="-63"/>
      <point x="137" y="-6" type="curve"/>
      <point x="157" y="3"/>
      <point x="190" y="26"/>
      <point x="190" y="61" type="curve" smooth="yes"/>
      <point x="190" y="104"/>
      <point x="160" y="129"/>
      <point x="124" y="129" type="curve" smooth="yes"/>
    </contour>
    <contour>
      <point x="802" y="502" type="line"/>
      <point x="780" y="580" type="line"/>
      <point x="-20" y="580" type="line"/>
      <point x="3" y="502" type="line"/>
    </contour>
    <contour>
      <point x="650" y="245" type="line"/>
      <point x="650" y="296" type="line"/>
      <point x="348" y="296" type="line"/>
      <point x="348" y="228" type="line"/>
    </contour>
    <component base="stem-short-deva" xOffset="8"/>
    <component base="stem-deva" xOffset="155"/>
    <contour>
      <point x="24" y="-181" type="move" name="nukta"/>
    </contour>
    <contour>
      <point x="608" y="0" type="move" name="bottom"/>
    </contour>
    <contour>
      <point x="608" y="580" type="move" name="top"/>
    </contour>
  </outline>
</glyph>
<glyph name="dha-deva" format="1">
  <advance width="713"/>
  <unicode hex="0927"/>
  <note>
    dDha
  </note>
  <outline>
    <contour>
      <point x="174" y="390"/>
      <point x="101" y="302"/>
      <point x="101" y="224" type="curve" smooth="yes"/>
      <point x="101" y="-11"/>
      <point x="453" y="-45"/>
      <point x="577" y="176" type="curve"/>
      <point x="499" y="302" type="line"/>
      <point x="474" y="155"/>
      <point x="387" y="83"/>
      <point x="294" y="83" type="curve" smooth="yes"/>
      <point x="230" y="83"/>
      <point x="200" y="126"/>
      <point x="200" y="174" type="curve" smooth="yes"/>
      <point x="200" y="232"/>
      <point x="246" y="297"/>
      <point x="333" y="295" type="curve"/>
      <point x="315" y="377" type="line"/>
    </contour>
    <contour>
      <point x="117" y="603"/>
      <point x="55" y="549"/>
      <point x="55" y="472" type="curve" smooth="yes"/>
      <point x="55" y="396"/>
      <point x="104" y="318"/>
      <point x="196" y="277" type="curve"/>
      <point x="245" y="328" type="line"/>
      <point x="186" y="350"/>
      <point x="154" y="412"/>
      <point x="154" y="464" type="curve" smooth="yes"/>
      <point x="154" y="509"/>
      <point x="178" y="547"/>
      <point x="229" y="547" type="curve" smooth="yes"/>
      <point x="264" y="547"/>
      <point x="285" y="516"/>
      <point x="250" y="470" type="curve"/>
      <point x="316" y="425" type="line"/>
      <point x="341" y="440"/>
      <point x="352" y="463"/>
      <point x="352" y="488" type="curve" smooth="yes"/>
      <point x="352" y="542"/>
      <point x="297" y="603"/>
      <point x="206" y="603" type="curve" smooth="yes"/>
    </contour>
    <contour>
      <point x="382" y="580" type="line"/>
      <point x="405" y="502" type="line"/>
      <point x="733" y="502" type="line"/>
      <point x="711" y="580" type="line"/>
    </contour>
    <component base="stem-deva" xOffset="112"/>
    <contour>
      <point x="163" y="0" type="move" name="nukta"/>
    </contour>
    <contour>
      <point x="563" y="0" type="move" name="bottom"/>
    </contour>
    <contour>
      <point x="563" y="580" type="move" name="top"/>
    </contour>
  </outline>
</glyph>
<glyph name="ba-deva" format="1">
  <advance width="621"/>
  <unicode hex="092C"/>
  <note>
    dBa
  </note>
  <outline>
    <contour>
      <point x="186" y="397" type="line"/>
      <point x="155" y="356" type="line"/>
      <point x="353" y="80" type="line"/>
      <point x="384" y="122" type="line"/>
    </contour>
    <component base="va-deva"/>
    <contour>
      <point x="86" y="0" type="move" name="nukta"/>
    </contour>
    <contour>
      <point x="453" y="0" type="move" name="bottom"/>
    </contour>
    <contour>
      <point x="467" y="580" type="move" name="top"/>
    </contour>
  </outline>
</glyph>
<glyph name="d_da-deva" format="1">
  <advance width="589"/>
  <note>
    dDDa
  </note>
  <outline>
    <contour>
      <point x="385" y="-41" type="line"/>
      <point x="485" y="-161" type="line"/>
      <point x="576" y="-141" type="line"/>
      <point x="428" y="-5" type="line"/>
    </contour>
    <contour>
      <point x="431" y="-65" type="line"/>
      <point x="493" y="-41"/>
      <point x="522" y="-5"/>
      <point x="522" y="45" type="curve" smooth="yes"/>
      <point x="522" y="86"/>
      <point x="481" y="122"/>
      <point x="440" y="122" type="curve" smooth="yes"/>
      <point x="385" y="122"/>
      <point x="337" y="73"/>
      <point x="366" y="4" type="curve"/>
    </contour>
    <contour>
      <point x="609" y="502" type="line"/>
      <point x="587" y="580" type="line"/>
      <point x="-20" y="580" type="line"/>
      <point x="3" y="502" type="line"/>
    </contour>
    <contour>
      <point x="332" y="502" type="line"/>
      <point x="326" y="474"/>
      <point x="322" y="444"/>
      <point x="322" y="424" type="curve" smooth="yes"/>
      <point x="322" y="384" type="line"/>
      <point x="442" y="345" type="line"/>
      <point x="442" y="418" type="line" smooth="yes"/>
      <point x="442" y="481"/>
      <point x="456" y="502"/>
      <point x="475" y="502" type="curve"/>
    </contour>
    <contour>
      <point x="415" y="33"/>
      <point x="319" y="-11"/>
      <point x="251" y="-11" type="curve" smooth="yes"/>
      <point x="203" y="-11"/>
      <point x="169" y="11"/>
      <point x="169" y="59" type="curve" smooth="yes"/>
      <point x="169" y="108"/>
      <point x="223" y="167"/>
      <point x="331" y="169" type="curve"/>
      <point x="309" y="259" type="line"/>
      <point x="219" y="235"/>
      <point x="165" y="232"/>
      <point x="152" y="269" type="curve" smooth="yes"/>
      <point x="141" y="298"/>
      <point x="152" y="332"/>
      <point x="207" y="335" type="curve" smooth="yes"/>
      <point x="412" y="345" type="line"/>
      <point x="380" y="421" type="line"/>
      <point x="185" y="431" type="line" smooth="yes"/>
      <point x="78" y="437"/>
      <point x="29" y="396"/>
      <point x="29" y="333" type="curve" smooth="yes"/>
      <point x="29" y="256"/>
      <point x="88" y="198"/>
      <point x="170" y="181" type="curve"/>
      <point x="163" y="212" type="line"/>
      <point x="109" y="187"/>
      <point x="75" y="139"/>
      <point x="75" y="86" type="curve" smooth="yes"/>
      <point x="75" y="-14"/>
      <point x="165" y="-93"/>
      <point x="314" y="-93" type="curve" smooth="yes"/>
      <point x="385" y="-93"/>
      <point x="432" y="-70"/>
      <point x="480" y="-39" type="curve"/>
      <point x="480" y="112" type="line"/>
    </contour>
    <contour>
      <point x="386" y="580" type="move" name="top"/>
    </contour>
    <contour>
      <point x="480" y="-113" type="move" name="bottom"/>
    </contour>
  </outline>
</glyph>
<glyph name="d_ga-deva" format="1">
  <advance width="551"/>
  <note>
    dDGa
  </note>
  <outline>
    <contour>
      <point x="206" y="50" type="line"/>
      <point x="245" y="-77" type="line"/>
      <point x="183" y="-88"/>
      <point x="156" y="-115"/>
      <point x="164" y="-156" type="curve"/>
      <point x="175" y="-210"/>
      <point x="247" y="-238"/>
      <point x="297" y="-233" type="curve"/>
      <point x="388" y="-223"/>
      <point x="329" y="-54"/>
      <point x="288" y="47" type="curve"/>
    </contour>
    <contour>
      <point x="346" y="106" type="line"/>
      <point x="350" y="38"/>
      <point x="432" y="-100"/>
      <point x="483" y="-179" type="curve"/>
      <point x="567" y="-111" type="line"/>
      <point x="428" y="62" type="line"/>
    </contour>
    <contour>
      <point x="571" y="502" type="line"/>
      <point x="549" y="580" type="line"/>
      <point x="-20" y="580" type="line"/>
      <point x="3" y="502" type="line"/>
    </contour>
    <contour>
      <point x="329" y="401" type="line"/>
      <point x="256" y="401" type="line" smooth="yes"/>
      <point x="151" y="401"/>
      <point x="45" y="350"/>
      <point x="45" y="219" type="curve" smooth="yes"/>
      <point x="45" y="103"/>
      <point x="157" y="-14"/>
      <point x="309" y="-15" type="curve" smooth="yes"/>
      <point x="382" y="-15"/>
      <point x="515" y="25"/>
      <point x="515" y="119" type="curve" smooth="yes"/>
      <point x="515" y="170"/>
      <point x="484" y="203"/>
      <point x="428" y="203" type="curve" smooth="yes"/>
      <point x="378" y="203"/>
      <point x="333" y="166"/>
      <point x="347" y="90" type="curve"/>
      <point x="328" y="78"/>
      <point x="305" y="72"/>
      <point x="282" y="72" type="curve" smooth="yes"/>
      <point x="221" y="72"/>
      <point x="158" y="103"/>
      <point x="158" y="181" type="curve" smooth="yes"/>
      <point x="158" y="244"/>
      <point x="201" y="321"/>
      <point x="285" y="326" type="curve" smooth="yes"/>
      <point x="428" y="333" type="line"/>
    </contour>
    <contour>
      <point x="318" y="502" type="line"/>
      <point x="312" y="478"/>
      <point x="308" y="454"/>
      <point x="308" y="424" type="curve" smooth="yes"/>
      <point x="308" y="364" type="line"/>
      <point x="428" y="333" type="line"/>
      <point x="428" y="418" type="line" smooth="yes"/>
      <point x="428" y="481"/>
      <point x="442" y="502"/>
      <point x="461" y="502" type="curve"/>
    </contour>
    <contour>
      <point x="375" y="580" type="move" name="top"/>
    </contour>
    <contour>
      <point x="472" y="-129" type="move" name="bottom"/>
    </contour>
  </outline>
</glyph>
<glyph name="d_gh_ya-deva" format="1">
  <advance width="1196"/>
  <outline>
    <contour>
      <point x="1012" y="237" type="line"/>
      <point x="950" y="148"/>
      <point x="809" y="111"/>
      <point x="752" y="187" type="curve"/>
      <point x="858" y="208"/>
      <point x="897" y="262"/>
      <point x="897" y="315" type="curve" smooth="yes"/>
      <point x="897" y="416"/>
      <point x="794" y="456"/>
      <point x="634" y="450" type="curve" smooth="yes"/>
      <point x="407" y="441" type="line"/>
      <point x="436" y="369" type="line"/>
      <point x="684" y="382" type="line" smooth="yes"/>
      <point x="770" y="387"/>
      <point x="803" y="360"/>
      <point x="803" y="315" type="curve" smooth="yes"/>
      <point x="803" y="274"/>
      <point x="762" y="242"/>
      <point x="659" y="226" type="curve"/>
      <point x="726" y="51"/>
      <point x="866" y="17"/>
      <point x="1015" y="98" type="curve"/>
    </contour>
    <contour>
      <point x="1216" y="502" type="line"/>
      <point x="1194" y="580" type="line"/>
      <point x="537" y="580" type="line"/>
      <point x="560" y="502" type="line"/>
    </contour>
    <component base="d_gha-deva"/>
    <component base="stem-deva" xOffset="609"/>
    <contour>
      <point x="1074" y="580" type="move" name="top"/>
    </contour>
    <contour>
      <point x="1059" y="0" type="move" name="bottom"/>
    </contour>
  </outline>
</glyph>
<glyph name="d_ra_uMatra-deva" format="1">
  <advance width="583"/>
  <outline>
    <contour>
      <point x="541" y="-119"/>
      <point x="619" y="-148"/>
      <point x="619" y="-208" type="curve" smooth="yes"/>
      <point x="619" y="-245"/>
      <point x="576" y="-274"/>
      <point x="521" y="-274" type="curve" smooth="yes"/>
      <point x="447" y="-274"/>
      <point x="396" y="-242"/>
      <point x="346" y="-190" type="curve"/>
      <point x="303" y="-225" type="line"/>
      <point x="363" y="-314"/>
      <point x="435" y="-364"/>
      <point x="515" y="-364" type="curve" smooth="yes"/>
      <point x="616" y="-364"/>
      <point x="683" y="-295"/>
      <point x="683" y="-219" type="curve" smooth="yes"/>
      <point x="683" y="-144"/>
      <point x="617" y="-63"/>
      <point x="516" y="-63" type="curve" smooth="yes"/>
      <point x="473" y="-63"/>
      <point x="430" y="-77"/>
      <point x="394" y="-104" type="curve"/>
      <point x="439" y="-184" type="line"/>
    </contour>
    <component base="d_ra-deva"/>
    <contour>
      <point x="68" y="2" type="move" name="nukta"/>
    </contour>
    <contour>
      <point x="384" y="-84" type="move" name="bottom"/>
    </contour>
    <contour>
      <point x="425" y="580" type="move" name="top"/>
    </contour>
  </outline>
</glyph>
<glyph name="d_va-deva" format="1">
  <advance width="582"/>
  <note>
    dDVa
  </note>
  <outline>
    <contour>
      <point x="602" y="-144" type="line"/>
      <point x="457" y="41" type="line"/>
      <point x="477" y="50"/>
      <point x="510" y="73"/>
      <point x="510" y="118" type="curve" smooth="yes"/>
      <point x="510" y="161"/>
      <point x="480" y="186"/>
      <point x="444" y="186" type="curve" smooth="yes"/>
      <point x="407" y="186"/>
      <point x="369" y="161"/>
      <point x="369" y="98" type="curve" smooth="yes"/>
      <point x="369" y="42"/>
      <point x="425" y="-71"/>
      <point x="522" y="-208" type="curve"/>
    </contour>
    <contour>
      <point x="371" y="-46"/>
      <point x="284" y="-100"/>
      <point x="219" y="-100" type="curve" smooth="yes"/>
      <point x="176" y="-100"/>
      <point x="143" y="-77"/>
      <point x="143" y="-25" type="curve" smooth="yes"/>
      <point x="143" y="18"/>
      <point x="173" y="64"/>
      <point x="232" y="64" type="curve"/>
      <point x="129" y="152" type="line"/>
      <point x="73" y="113"/>
      <point x="47" y="60"/>
      <point x="47" y="7" type="curve" smooth="yes"/>
      <point x="47" y="-82"/>
      <point x="124" y="-167"/>
      <point x="267" y="-167" type="curve" smooth="yes"/>
      <point x="362" y="-167"/>
      <point x="428" y="-106"/>
      <point x="479" y="-44" type="curve"/>
      <point x="400" y="48" type="line"/>
    </contour>
    <contour>
      <point x="410" y="128" type="line"/>
      <point x="374" y="99"/>
      <point x="331" y="84"/>
      <point x="292" y="84" type="curve" smooth="yes"/>
      <point x="194" y="84"/>
      <point x="162" y="145"/>
      <point x="162" y="207" type="curve" smooth="yes"/>
      <point x="162" y="278"/>
      <point x="223" y="320"/>
      <point x="308" y="322" type="curve" smooth="yes"/>
      <point x="468" y="326" type="line"/>
      <point x="468" y="502" type="line"/>
      <point x="601" y="502" type="line"/>
      <point x="579" y="580" type="line"/>
      <point x="-20" y="580" type="line"/>
      <point x="3" y="502" type="line"/>
      <point x="388" y="502" type="line"/>
      <point x="388" y="401" type="line"/>
      <point x="347" y="409"/>
      <point x="305" y="413"/>
      <point x="266" y="413" type="curve" smooth="yes"/>
      <point x="105" y="413"/>
      <point x="52" y="326"/>
      <point x="52" y="240" type="curve" smooth="yes"/>
      <point x="52" y="104"/>
      <point x="175" y="5"/>
      <point x="296" y="5" type="curve" smooth="yes"/>
      <point x="341" y="5"/>
      <point x="387" y="16"/>
      <point x="430" y="40" type="curve"/>
    </contour>
    <component base="stem-short-deva" xOffset="36"/>
    <contour>
      <point x="401" y="580" type="move" name="top"/>
    </contour>
    <contour>
      <point x="451" y="-68" type="move" name="bottom"/>
    </contour>
  </outline>
</glyph>
<glyph name="dd_ya-deva" format="1">
  <advance width="1037"/>
  <note>
    dDdYa
  </note>
  <outline>
    <contour>
      <point x="853" y="237" type="line"/>
      <point x="791" y="148"/>
      <point x="650" y="116"/>
      <point x="613" y="182" type="curve"/>
      <point x="739" y="220"/>
      <point x="757" y="301"/>
      <point x="726" y="366" type="curve" smooth="yes"/>
      <point x="692" y="438"/>
      <point x="588" y="441"/>
      <point x="475" y="440" type="curve" smooth="yes"/>
      <point x="248" y="438" type="line"/>
      <point x="277" y="364" type="line"/>
      <point x="505" y="370" type="line" smooth="yes"/>
      <point x="593" y="372"/>
      <point x="630" y="359"/>
      <point x="645" y="327" type="curve" smooth="yes"/>
      <point x="655" y="305"/>
      <point x="655" y="249"/>
      <point x="500" y="226" type="curve"/>
      <point x="567" y="51"/>
      <point x="707" y="17"/>
      <point x="856" y="98" type="curve"/>
    </contour>
    <contour>
      <point x="1057" y="502" type="line"/>
      <point x="1035" y="580" type="line"/>
      <point x="378" y="580" type="line"/>
      <point x="401" y="502" type="line"/>
    </contour>
    <component base="dda-deva"/>
    <component base="stem-deva" xOffset="450"/>
    <contour>
      <point x="909" y="580" type="move" name="top"/>
    </contour>
    <contour>
      <point x="909" y="0" type="move" name="bottom"/>
    </contour>
  </outline>
</glyph>
<glyph name="k-deva" format="1">
  <advance width="640"/>
  <outline>
    <contour>
      <point x="689" y="502" type="line"/>
      <point x="667" y="580" type="line"/>
      <point x="-20" y="580" type="line"/>
      <point x="3" y="502" type="line"/>
    </contour>
    <contour>
      <point x="729" y="417"/>
      <point x="682" y="436"/>
      <point x="639" y="436" type="curve" smooth="yes"/>
      <point x="580" y="436"/>
      <point x="523" y="398"/>
      <point x="436" y="304" type="curve"/>
      <point x="466" y="217" type="line"/>
      <point x="578" y="371"/>
      <point x="651" y="369"/>
      <point x="695" y="337" type="curve"/>
      <point x="775" y="378" type="line"/>
    </contour>
    <contour>
      <point x="435" y="294" type="line"/>
      <point x="372" y="222"/>
      <point x="312" y="163"/>
      <point x="227" y="163" type="curve" smooth="yes"/>
      <point x="166" y="163"/>
      <point x="138" y="195"/>
      <point x="138" y="251" type="curve" smooth="yes"/>
      <point x="138" y="313"/>
      <point x="181" y="359"/>
      <point x="262" y="359" type="curve" smooth="yes"/>
      <point x="297" y="359"/>
      <point x="337" y="350"/>
      <point x="376" y="331" type="curve"/>
      <point x="379" y="399" type="line"/>
      <point x="337" y="427"/>
      <point x="294" y="455"/>
      <point x="228" y="454" type="curve" smooth="yes"/>
      <point x="123" y="453"/>
      <point x="50" y="382"/>
      <point x="50" y="280" type="curve" smooth="yes"/>
      <point x="50" y="161"/>
      <point x="139" y="71"/>
      <point x="245" y="71" type="curve" smooth="yes"/>
      <point x="308" y="71"/>
      <point x="392" y="116"/>
      <point x="465" y="217" type="curve"/>
    </contour>
    <component base="stem-deva" xOffset="-12"/>
    <contour>
      <point x="116" y="0" type="move" name="nukta"/>
    </contour>
  </outline>
</glyph>
<glyph name="la-deva.loclMAR" format="1">
  <advance width="611"/>
  <note>
    dLa.MAR
  </note>
  <outline>
    <contour>
      <point x="631" y="502" type="line"/>
      <point x="609" y="580" type="line"/>
      <point x="-20" y="580" type="line"/>
      <point x="3" y="502" type="line"/>
    </contour>
    <contour>
      <point x="535" y="23"/>
      <point x="609" y="114"/>
      <point x="609" y="221" type="curve" smooth="yes"/>
      <point x="609" y="325"/>
      <point x="543" y="427"/>
      <point x="404" y="427" type="curve" smooth="yes"/>
      <point x="295" y="427"/>
      <point x="234" y="340"/>
      <point x="221" y="212" type="curve"/>
      <point x="325" y="198" type="line"/>
      <point x="332" y="295"/>
      <point x="395" y="342"/>
      <point x="446" y="342" type="curve" smooth="yes"/>
      <point x="482" y="342"/>
      <point x="512" y="317"/>
      <point x="512" y="255" type="curve" smooth="yes"/>
      <point x="512" y="184"/>
      <point x="463" y="99"/>
      <point x="362" y="33" type="curve"/>
      <point x="443" y="-40" type="line"/>
    </contour>
    <contour>
      <point x="294" y="381"/>
      <point x="241" y="433"/>
      <point x="154" y="433" type="curve" smooth="yes"/>
      <point x="43" y="433"/>
      <point x="4" y="356"/>
      <point x="4" y="273" type="curve" smooth="yes"/>
      <point x="4" y="137"/>
      <point x="113" y="32"/>
      <point x="267" y="-27" type="curve"/>
      <point x="298" y="22" type="line"/>
      <point x="172" y="79"/>
      <point x="119" y="148"/>
      <point x="119" y="231" type="curve" smooth="yes"/>
      <point x="119" y="305"/>
      <point x="153" y="335"/>
      <point x="199" y="335" type="curve" smooth="yes"/>
      <point x="232" y="335"/>
      <point x="275" y="317"/>
      <point x="307" y="286" type="curve"/>
      <point x="343" y="320" type="line"/>
    </contour>
    <component base="stem-short-deva" xOffset="58"/>
    <contour>
      <point x="52" y="-59" type="move" name="nukta"/>
    </contour>
    <contour>
      <point x="408" y="-5" type="move" name="bottom"/>
    </contour>
    <contour>
      <point x="431" y="580" type="move" name="top"/>
    </contour>
  </outline>
</glyph>
<glyph name="m_r-deva" format="1">
  <advance width="397"/>
  <note>
    dMR.half
  </note>
  <outline>
    <contour>
      <point x="159" y="7" type="line"/>
      <point x="225" y="-36" type="line"/>
      <point x="422" y="230" type="line"/>
      <point x="364" y="268" type="line"/>
    </contour>
    <contour>
      <point x="113" y="230" type="line"/>
      <point x="360" y="236" type="line"/>
      <point x="377" y="230" type="line"/>
      <point x="422" y="230" type="line"/>
      <point x="400" y="308" type="line"/>
      <point x="243" y="308" type="line"/>
    </contour>
    <contour>
      <point x="372" y="502" type="line"/>
      <point x="350" y="580" type="line"/>
      <point x="15" y="580" type="line"/>
      <point x="38" y="502" type="line"/>
    </contour>
    <contour>
      <point x="123" y="502" type="line"/>
      <point x="117" y="474"/>
      <point x="113" y="444"/>
      <point x="113" y="404" type="curve" smooth="yes"/>
      <point x="113" y="258" type="line"/>
      <point x="243" y="238" type="line"/>
      <point x="243" y="415" type="line" smooth="yes"/>
      <point x="243" y="481"/>
      <point x="257" y="502"/>
      <point x="276" y="502" type="curve"/>
    </contour>
    <component base="deva_knot" xOffset="24" yOffset="-19"/>
  </outline>
</glyph>
<glyph name="n_ma-deva" format="1">
  <advance width="813"/>
  <note>
    dNMa
  </note>
  <outline>
    <contour>
      <point x="131" y="416" type="line"/>
      <point x="132" y="334" type="line"/>
      <point x="358" y="355" type="line"/>
      <point x="358" y="416" type="line"/>
    </contour>
    <contour>
      <point x="298" y="502" type="line"/>
      <point x="276" y="580" type="line"/>
      <point x="-20" y="580" type="line"/>
      <point x="3" y="502" type="line"/>
    </contour>
    <component base="ma-deva" xOffset="244"/>
    <component base="deva_knot" xOffset="20" yOffset="119" xScale="0.926" yScale="0.909"/>
    <contour>
      <point x="138" y="-15" type="move" name="nukta"/>
    </contour>
    <contour>
      <point x="676" y="0" type="move" name="bottom"/>
    </contour>
    <contour>
      <point x="680" y="580" type="move" name="top"/>
    </contour>
  </outline>
</glyph>
<glyph name="p_ta-deva" format="1">
  <advance width="601"/>
  <note>
    dPTa
  </note>
  <outline>
    <contour>
      <point x="265" y="326" type="line"/>
      <point x="228" y="326"/>
      <point x="201" y="353"/>
      <point x="201" y="416" type="curve" smooth="yes"/>
      <point x="201" y="558" type="line"/>
      <point x="71" y="558" type="line"/>
      <point x="71" y="498" type="line" smooth="yes"/>
      <point x="71" y="341"/>
      <point x="163" y="263"/>
      <point x="273" y="263" type="curve"/>
    </contour>
    <contour>
      <point x="486" y="248" type="line"/>
      <point x="444" y="326" type="line"/>
      <point x="255" y="326" type="line" smooth="yes"/>
      <point x="134" y="326"/>
      <point x="77" y="274"/>
      <point x="77" y="202" type="curve" smooth="yes"/>
      <point x="77" y="120"/>
      <point x="135" y="66"/>
      <point x="246" y="-11" type="curve"/>
      <point x="293" y="33" type="line"/>
      <point x="220" y="77"/>
      <point x="182" y="132"/>
      <point x="182" y="175" type="curve" smooth="yes"/>
      <point x="182" y="217"/>
      <point x="219" y="248"/>
      <point x="296" y="248" type="curve" smooth="yes"/>
    </contour>
    <contour>
      <point x="621" y="502" type="line"/>
      <point x="599" y="580" type="line"/>
      <point x="-20" y="580" type="line"/>
      <point x="3" y="502" type="line"/>
    </contour>
    <component base="stem-deva" xOffset="-5"/>
  </outline>
</glyph>
<glyph name="sh_ca-deva" format="1">
  <advance width="799"/>
  <note>
    dShCa
  </note>
  <outline>
    <contour>
      <point x="819" y="502" type="line"/>
      <point x="797" y="580" type="line"/>
      <point x="488" y="580" type="line"/>
      <point x="511" y="502" type="line"/>
    </contour>
    <contour>
      <point x="232" y="357" type="line"/>
      <point x="194" y="337"/>
      <point x="146" y="313"/>
      <point x="74" y="285" type="curve"/>
      <point x="124" y="188" type="line"/>
      <point x="216" y="231"/>
      <point x="282" y="268"/>
      <point x="330" y="299" type="curve"/>
    </contour>
    <contour>
      <point x="141" y="559"/>
      <point x="141" y="490" type="curve" smooth="yes"/>
      <point x="141" y="427"/>
      <point x="181" y="355"/>
      <point x="263" y="313" type="curve" smooth="yes"/>
      <point x="390" y="247"/>
      <point x="446" y="226"/>
      <point x="590" y="240" type="curve"/>
      <point x="578" y="327" type="line"/>
      <point x="504" y="309"/>
      <point x="397" y="321"/>
      <point x="336" y="353" type="curve" smooth="yes"/>
      <point x="279" y="383"/>
      <point x="248" y="447"/>
      <point x="248" y="497" type="curve" smooth="yes"/>
      <point x="248" y="535"/>
      <point x="267" y="565"/>
      <point x="307" y="565" type="curve" smooth="yes"/>
      <point x="340" y="565"/>
      <point x="357" y="539"/>
      <point x="357" y="505" type="curve" smooth="yes"/>
      <point x="357" y="461"/>
      <point x="328" y="405"/>
      <point x="269" y="378" type="curve"/>
      <point x="362" y="322" type="line"/>
      <point x="447" y="384"/>
      <point x="455" y="431"/>
      <point x="455" y="473" type="curve" smooth="yes"/>
      <point x="455" y="559"/>
      <point x="384" y="619"/>
      <point x="286" y="619" type="curve" smooth="yes"/>
      <point x="189" y="619"/>
    </contour>
    <contour>
      <point x="261" y="176"/>
      <point x="206" y="109"/>
      <point x="206" y="50" type="curve" smooth="yes"/>
      <point x="206" y="-9"/>
      <point x="252" y="-62"/>
      <point x="346" y="-62" type="curve" smooth="yes"/>
      <point x="464" y="-62"/>
      <point x="565" y="11"/>
      <point x="618" y="128" type="curve"/>
      <point x="578" y="208" type="line"/>
      <point x="518" y="82"/>
      <point x="437" y="24"/>
      <point x="358" y="24" type="curve" smooth="yes"/>
      <point x="334" y="24"/>
      <point x="321" y="40"/>
      <point x="321" y="61" type="curve" smooth="yes"/>
      <point x="321" y="94"/>
      <point x="354" y="140"/>
      <point x="429" y="159" type="curve"/>
      <point x="367" y="196" type="line"/>
    </contour>
    <contour>
      <point x="85" y="153" type="line"/>
      <point x="135" y="80" type="line"/>
      <point x="377" y="166" type="line"/>
      <point x="429" y="159" type="line"/>
      <point x="376" y="221" type="line"/>
    </contour>
    <component base="stem-deva" xOffset="191"/>
    <contour>
      <point x="644" y="580" type="move" name="top"/>
    </contour>
    <contour>
      <point x="644" y="0" type="move" name="bottom"/>
    </contour>
  </outline>
</glyph>
<glyph name="ss_ttha-deva" format="1">
  <advance width="564"/>
  <note>
    dSsTtha
  </note>
  <outline>
    <contour>
      <point x="323" y="213" type="line"/>
      <point x="408" y="191"/>
      <point x="430" y="150"/>
      <point x="430" y="103" type="curve" smooth="yes"/>
      <point x="430" y="25"/>
      <point x="367" y="-12"/>
      <point x="303" y="-12" type="curve" smooth="yes"/>
      <point x="233" y="-12"/>
      <point x="166" y="29"/>
      <point x="166" y="99" type="curve" smooth="yes"/>
      <point x="166" y="143"/>
      <point x="200" y="185"/>
      <point x="260" y="188" type="curve" smooth="yes"/>
      <point x="410" y="197" type="line"/>
      <point x="345" y="266" type="line"/>
      <point x="260" y="266" type="line" smooth="yes"/>
      <point x="145" y="266"/>
      <point x="62" y="209"/>
      <point x="62" y="121" type="curve" smooth="yes"/>
      <point x="62" y="0"/>
      <point x="187" y="-65"/>
      <point x="317" y="-65" type="curve" smooth="yes"/>
      <point x="441" y="-65"/>
      <point x="537" y="-14"/>
      <point x="537" y="75" type="curve" smooth="yes"/>
      <point x="537" y="153"/>
      <point x="488" y="226"/>
      <point x="323" y="251" type="curve"/>
    </contour>
    <contour>
      <point x="294" y="266" type="line"/>
      <point x="218" y="265"/>
      <point x="184" y="282"/>
      <point x="184" y="350" type="curve" smooth="yes"/>
      <point x="184" y="541" type="line"/>
      <point x="54" y="541" type="line"/>
      <point x="54" y="414" type="line" smooth="yes"/>
      <point x="54" y="265"/>
      <point x="163" y="209"/>
      <point x="295" y="215" type="curve"/>
    </contour>
    <contour>
      <point x="584" y="502" type="line"/>
      <point x="562" y="580" type="line"/>
      <point x="-20" y="580" type="line"/>
      <point x="3" y="502" type="line"/>
    </contour>
    <contour>
      <point x="145" y="511" type="line"/>
      <point x="369" y="220" type="line"/>
      <point x="402" y="247" type="line" smooth="yes"/>
      <point x="180" y="541" type="line"/>
    </contour>
    <contour>
      <point x="360" y="502" type="line"/>
      <point x="356" y="475"/>
      <point x="353" y="444"/>
      <point x="353" y="404" type="curve" smooth="yes"/>
      <point x="353" y="224" type="line"/>
      <point x="483" y="180" type="line"/>
      <point x="483" y="415" type="line" smooth="yes"/>
      <point x="483" y="481"/>
      <point x="497" y="502"/>
      <point x="516" y="502" type="curve"/>
    </contour>
    <contour>
      <point x="409" y="580" type="move" name="top"/>
    </contour>
    <contour>
      <point x="324" y="-44" type="move" name="bottom"/>
    </contour>
  </outline>
</glyph>
<glyph name="stem_deva_conj" format="1">
  <advance width="577"/>
  <outline>
    <contour>
      <point x="357" y="502" type="line"/>
      <point x="351" y="473"/>
      <point x="347" y="444"/>
      <point x="347" y="404" type="curve" smooth="yes"/>
      <point x="347" y="-140" type="line"/>
      <point x="477" y="-174" type="line"/>
      <point x="477" y="415" type="line" smooth="yes"/>
      <point x="477" y="473"/>
      <point x="491" y="502"/>
      <point x="510" y="502" type="curve"/>
    </contour>
  </outline>
</glyph>
